<?xml version="1.0" encoding="utf-8"?>
<svg version="1.1" xmlns:xlink="http://www.w3.org/1999/xlink" width="1034px" height="63px" xmlns="http://www.w3.org/2000/svg">
  <defs>
    <filter x="87px" y="2144px" width="1034px" height="63px" filterUnits="userSpaceOnUse" id="filter27">
      <feOffset dx="5" dy="5" in="SourceAlpha" result="shadowOffsetInner" />
      <feGaussianBlur stdDeviation="2.5" in="shadowOffsetInner" result="shadowGaussian" />
      <feComposite in2="shadowGaussian" operator="atop" in="SourceAlpha" result="shadowComposite" />
      <feColorMatrix type="matrix" values="0 0 0 0 0  0 0 0 0 0  0 0 0 0 0  0 0 0 0.349019607843137 0  " in="shadowComposite" />
    </filter>
    <g id="widget28">
      <path d="M 90.5 2147.5  L 1101 2147.5  A 6.5 6.5 0 0 1 1107.5 2154 L 1107.5 2187  A 6.5 6.5 0 0 1 1101 2193.5 L 90.5 2193.5  L 90.5 2147.5  Z " fill-rule="nonzero" fill="#facd91" stroke="none" fill-opacity="0.67843137254902" />
      <path d="M 89 2146  L 1101 2146  A 8 8 0 0 1 1109 2154 L 1109 2187  A 8 8 0 0 1 1101 2195 L 89 2195  L 89 2146  Z " stroke-width="4" stroke="#ffffff" fill="none" />
    </g>
  </defs>
  <g transform="matrix(1 0 0 1 -87 -2144 )">
    <use xlink:href="#widget28" filter="url(#filter27)" />
    <use xlink:href="#widget28" />
  </g>
</svg>