<?xml version="1.0" encoding="utf-8"?>
<svg version="1.1" xmlns:xlink="http://www.w3.org/1999/xlink" width="330px" height="63px" xmlns="http://www.w3.org/2000/svg">
  <defs>
    <filter x="-1px" y="2453px" width="330px" height="63px" filterUnits="userSpaceOnUse" id="filter43">
      <feOffset dx="5" dy="5" in="SourceAlpha" result="shadowOffsetInner" />
      <feGaussianBlur stdDeviation="2.5" in="shadowOffsetInner" result="shadowGaussian" />
      <feComposite in2="shadowGaussian" operator="atop" in="SourceAlpha" result="shadowComposite" />
      <feColorMatrix type="matrix" values="0 0 0 0 0  0 0 0 0 0  0 0 0 0 0  0 0 0 0.349019607843137 0  " in="shadowComposite" />
    </filter>
    <g id="widget44">
      <path d="M 2.5 2456.5  L 309 2456.5  A 6.5 6.5 0 0 1 315.5 2463 L 315.5 2496  A 6.5 6.5 0 0 1 309 2502.5 L 2.5 2502.5  L 2.5 2456.5  Z " fill-rule="nonzero" fill="#facd91" stroke="none" fill-opacity="0.67843137254902" />
      <path d="M 1 2455  L 309 2455  A 8 8 0 0 1 317 2463 L 317 2496  A 8 8 0 0 1 309 2504 L 1 2504  L 1 2455  Z " stroke-width="4" stroke="#ffffff" fill="none" />
    </g>
  </defs>
  <g transform="matrix(1 0 0 1 1 -2453 )">
    <use xlink:href="#widget44" filter="url(#filter43)" />
    <use xlink:href="#widget44" />
  </g>
</svg>