<?xml version="1.0" encoding="utf-8"?>
<svg version="1.1" xmlns:xlink="http://www.w3.org/1999/xlink" width="1031px" height="63px" xmlns="http://www.w3.org/2000/svg">
  <defs>
    <filter x="-1px" y="2150px" width="1031px" height="63px" filterUnits="userSpaceOnUse" id="filter35">
      <feOffset dx="5" dy="5" in="SourceAlpha" result="shadowOffsetInner" />
      <feGaussianBlur stdDeviation="2.5" in="shadowOffsetInner" result="shadowGaussian" />
      <feComposite in2="shadowGaussian" operator="atop" in="SourceAlpha" result="shadowComposite" />
      <feColorMatrix type="matrix" values="0 0 0 0 0  0 0 0 0 0  0 0 0 0 0  0 0 0 0.349019607843137 0  " in="shadowComposite" />
    </filter>
    <g id="widget36">
      <path d="M 2.5 2153.5  L 1010 2153.5  A 6.5 6.5 0 0 1 1016.5 2160 L 1016.5 2193  A 6.5 6.5 0 0 1 1010 2199.5 L 2.5 2199.5  L 2.5 2153.5  Z " fill-rule="nonzero" fill="#facd91" stroke="none" fill-opacity="0.67843137254902" />
      <path d="M 1 2152  L 1010 2152  A 8 8 0 0 1 1018 2160 L 1018 2193  A 8 8 0 0 1 1010 2201 L 1 2201  L 1 2152  Z " stroke-width="4" stroke="#ffffff" fill="none" />
    </g>
  </defs>
  <g transform="matrix(1 0 0 1 1 -2150 )">
    <use xlink:href="#widget36" filter="url(#filter35)" />
    <use xlink:href="#widget36" />
  </g>
</svg>