<?xml version="1.0" encoding="utf-8"?>
<svg version="1.1" xmlns:xlink="http://www.w3.org/1999/xlink" width="32px" height="26px" xmlns="http://www.w3.org/2000/svg">
  <g transform="matrix(1 0 0 1 -121 -3255 )">
    <path d="M 19.7708333333333 16.0638020833333  C 20.8125 15.2174479166667  21.3333333333333 14.1961805555556  21.3333333333333 13  C 21.3333333333333 11.8038194444444  20.8125 10.7825520833333  19.7708333333333 9.93619791666667  C 18.7291666666667 9.08984375  17.4722222222222 8.66666666666667  16 8.66666666666667  C 14.5277777777778 8.66666666666667  13.2708333333333 9.08984375  12.2291666666667 9.93619791666667  C 11.1875 10.7825520833333  10.6666666666667 11.8038194444444  10.6666666666667 13  C 10.6666666666667 14.1961805555556  11.1875 15.2174479166667  12.2291666666667 16.0638020833333  C 13.2708333333333 16.91015625  14.5277777777778 17.3333333333333  16 17.3333333333333  C 17.4722222222222 17.3333333333333  18.7291666666667 16.91015625  19.7708333333333 16.0638020833333  Z M 21.8125 8.27734375  C 23.4097222222222 9.57508680555555  24.2083333333333 11.1493055555556  24.2083333333333 13  C 24.2083333333333 14.8506944444444  23.4097222222222 16.4249131944444  21.8125 17.72265625  C 20.2152777777778 19.0203993055556  18.2777777777778 19.6692708333333  16 19.6692708333333  C 13.7222222222222 19.6692708333333  11.7847222222222 19.0203993055556  10.1875 17.72265625  C 8.59027777777778 16.4249131944444  7.79166666666667 14.8506944444444  7.79166666666667 13  C 7.79166666666667 11.1493055555556  8.59027777777778 9.57508680555555  10.1875 8.27734375  C 11.7847222222222 6.97960069444444  13.7222222222222 6.33072916666667  16 6.33072916666667  C 18.2777777777778 6.33072916666667  20.2152777777778 6.97960069444444  21.8125 8.27734375  Z M 25.8958333333333 4.95963541666667  C 26.2708333333333 5.26432291666667  26.4583333333333 5.63107638888889  26.4583333333333 6.05989583333333  C 26.4583333333333 6.48871527777778  26.2708333333333 6.85546875  25.8958333333333 7.16015625  C 25.5208333333333 7.46484375  25.0694444444444 7.6171875  24.5416666666667 7.6171875  C 24.0138888888889 7.6171875  23.5625 7.46484375  23.1875 7.16015625  C 22.8125 6.85546875  22.625 6.48871527777778  22.625 6.05989583333333  C 22.625 5.63107638888889  22.8125 5.26432291666667  23.1875 4.95963541666667  C 23.5625 4.65494791666667  24.0138888888889 4.50260416666667  24.5416666666667 4.50260416666667  C 25.0694444444444 4.50260416666667  25.5208333333333 4.65494791666667  25.8958333333333 4.95963541666667  Z M 17.59375 2.32747395833333  C 16.6284722222222 2.33311631944444  16.0972222222222 2.3359375  16 2.3359375  C 15.9027777777778 2.3359375  15.3715277777778 2.33311631944444  14.40625 2.32747395833333  C 13.4409722222222 2.32183159722222  12.7083333333333 2.32183159722222  12.2083333333333 2.32747395833333  C 11.7083333333333 2.33311631944444  11.0381944444444 2.35004340277778  10.1979166666667 2.37825520833333  C 9.35763888888889 2.40646701388889  8.64236111111111 2.462890625  8.05208333333333 2.54752604166667  C 7.46180555555556 2.63216145833333  6.96527777777778 2.73654513888889  6.5625 2.86067708333333  C 5.86805555555556 3.08637152777778  5.25694444444444 3.41362847222222  4.72916666666667 3.84244791666667  C 4.20138888888889 4.27126736111111  3.79861111111111 4.76779513888889  3.52083333333333 5.33203125  C 3.36805555555556 5.65928819444444  3.23958333333333 6.06271701388889  3.13541666666667 6.54231770833333  C 3.03125 7.02191840277778  2.96180555555556 7.60308159722222  2.92708333333333 8.28580729166667  C 2.89236111111111 8.96853298611111  2.87152777777778 9.51302083333333  2.86458333333333 9.91927083333333  C 2.85763888888889 10.3255208333333  2.85763888888889 10.9207899305556  2.86458333333333 11.705078125  C 2.87152777777778 12.4893663194444  2.875 12.9210069444444  2.875 13  C 2.875 13.0789930555556  2.87152777777778 13.5106336805556  2.86458333333333 14.294921875  C 2.85763888888889 15.0792100694444  2.85763888888889 15.6744791666667  2.86458333333333 16.0807291666667  C 2.87152777777778 16.4869791666667  2.89236111111111 17.0314670138889  2.92708333333333 17.7141927083333  C 2.96180555555556 18.3969184027778  3.03125 18.9780815972222  3.13541666666667 19.4576822916667  C 3.23958333333333 19.9372829861111  3.36805555555556 20.3407118055556  3.52083333333333 20.66796875  C 3.79861111111111 21.2322048611111  4.20138888888889 21.7287326388889  4.72916666666667 22.1575520833333  C 5.25694444444444 22.5863715277778  5.86805555555556 22.9136284722222  6.5625 23.1393229166667  C 6.96527777777778 23.2634548611111  7.46180555555556 23.3678385416667  8.05208333333333 23.4524739583333  C 8.64236111111111 23.537109375  9.35763888888889 23.5935329861111  10.1979166666667 23.6217447916667  C 11.0381944444444 23.6499565972222  11.7083333333333 23.6668836805556  12.2083333333333 23.6725260416667  C 12.7083333333333 23.6781684027778  13.4409722222222 23.6781684027778  14.40625 23.6725260416667  C 15.3715277777778 23.6668836805556  15.9027777777778 23.6640625  16 23.6640625  C 16.0972222222222 23.6640625  16.6284722222222 23.6668836805556  17.59375 23.6725260416667  C 18.5590277777778 23.6781684027778  19.2916666666667 23.6781684027778  19.7916666666667 23.6725260416667  C 20.2916666666667 23.6668836805556  20.9618055555556 23.6499565972222  21.8020833333333 23.6217447916667  C 22.6423611111111 23.5935329861111  23.3576388888889 23.537109375  23.9479166666667 23.4524739583333  C 24.5381944444444 23.3678385416667  25.0347222222222 23.2634548611111  25.4375 23.1393229166667  C 26.1319444444444 22.9136284722222  26.7430555555556 22.5863715277778  27.2708333333333 22.1575520833333  C 27.7986111111111 21.7287326388889  28.2013888888889 21.2322048611111  28.4791666666667 20.66796875  C 28.6319444444444 20.3407118055556  28.7604166666667 19.9372829861111  28.8645833333333 19.4576822916667  C 28.96875 18.9780815972222  29.0381944444444 18.3969184027778  29.0729166666667 17.7141927083333  C 29.1076388888889 17.0314670138889  29.1284722222222 16.4869791666667  29.1354166666667 16.0807291666667  C 29.1423611111111 15.6744791666667  29.1423611111111 15.0792100694444  29.1354166666667 14.294921875  C 29.1284722222222 13.5106336805556  29.125 13.0789930555556  29.125 13  C 29.125 12.9210069444444  29.1284722222222 12.4893663194444  29.1354166666667 11.705078125  C 29.1423611111111 10.9207899305556  29.1423611111111 10.3255208333333  29.1354166666667 9.91927083333333  C 29.1284722222222 9.51302083333333  29.1076388888889 8.96853298611111  29.0729166666667 8.28580729166667  C 29.0381944444444 7.60308159722222  28.96875 7.02191840277778  28.8645833333333 6.54231770833333  C 28.7604166666667 6.06271701388889  28.6319444444444 5.65928819444444  28.4791666666667 5.33203125  C 28.2013888888889 4.76779513888889  27.7986111111111 4.27126736111111  27.2708333333333 3.84244791666667  C 26.7430555555556 3.41362847222222  26.1319444444444 3.08637152777778  25.4375 2.86067708333333  C 25.0347222222222 2.73654513888889  24.5381944444444 2.63216145833333  23.9479166666667 2.54752604166667  C 23.3576388888889 2.462890625  22.6423611111111 2.40646701388889  21.8020833333333 2.37825520833333  C 20.9618055555556 2.35004340277778  20.2916666666667 2.33311631944444  19.7916666666667 2.32747395833333  C 19.2916666666667 2.32183159722222  18.5590277777778 2.32183159722222  17.59375 2.32747395833333  Z M 31.8958333333333 7.63411458333333  C 31.9652777777778 8.62717013888889  32 10.4157986111111  32 13  C 32 15.5842013888889  31.9652777777778 17.3728298611111  31.8958333333333 18.3658854166667  C 31.7569444444444 20.7131076388889  30.8958333333333 22.5299479166667  29.3125 23.81640625  C 27.7291666666667 25.1028645833333  25.4930555555556 25.8025173611111  22.6041666666667 25.9153645833333  C 21.3819444444444 25.9717881944444  19.1805555555556 26  16 26  C 12.8194444444444 26  10.6180555555556 25.9717881944444  9.39583333333333 25.9153645833333  C 6.50694444444445 25.8025173611111  4.27083333333333 25.1028645833333  2.6875 23.81640625  C 1.10416666666667 22.5299479166667  0.243055555555556 20.7131076388889  0.104166666666667 18.3658854166667  C 0.0347222222222222 17.3728298611111  0 15.5842013888889  0 13  C 0 10.4157986111111  0.0347222222222222 8.62717013888889  0.104166666666667 7.63411458333333  C 0.243055555555556 5.28689236111111  1.10416666666667 3.47005208333333  2.6875 2.18359375  C 4.27083333333333 0.897135416666668  6.50694444444445 0.197482638888887  9.39583333333333 0.0846354166666676  C 10.6180555555556 0.028211805555552  12.8194444444444 0  16 0  C 19.1805555555556 0  21.3819444444444 0.028211805555552  22.6041666666667 0.0846354166666676  C 25.4930555555556 0.197482638888887  27.7291666666667 0.897135416666668  29.3125 2.18359375  C 30.8958333333333 3.47005208333333  31.7569444444444 5.28689236111111  31.8958333333333 7.63411458333333  Z " fill-rule="nonzero" fill="#000000" stroke="none" transform="matrix(1 0 0 1 121 3255 )" />
  </g>
</svg>