<?xml version="1.0" encoding="utf-8"?>
<svg version="1.1" xmlns:xlink="http://www.w3.org/1999/xlink" width="39px" height="32px" xmlns="http://www.w3.org/2000/svg">
  <g transform="matrix(1 0 0 1 -886 -2959 )">
    <path d="M 24.095703125 19.7708333333333  C 25.365234375 18.7291666666667  26 17.4722222222222  26 16  C 26 14.5277777777778  25.365234375 13.2708333333333  24.095703125 12.2291666666667  C 22.826171875 11.1875  21.2942708333333 10.6666666666667  19.5 10.6666666666667  C 17.7057291666667 10.6666666666667  16.173828125 11.1875  14.904296875 12.2291666666667  C 13.634765625 13.2708333333333  13 14.5277777777778  13 16  C 13 17.4722222222222  13.634765625 18.7291666666667  14.904296875 19.7708333333333  C 16.173828125 20.8125  17.7057291666667 21.3333333333333  19.5 21.3333333333333  C 21.2942708333333 21.3333333333333  22.826171875 20.8125  24.095703125 19.7708333333333  Z M 26.583984375 10.1875  C 28.5305989583333 11.7847222222222  29.50390625 13.7222222222222  29.50390625 16  C 29.50390625 18.2777777777778  28.5305989583333 20.2152777777778  26.583984375 21.8125  C 24.6373697916667 23.4097222222222  22.2760416666667 24.2083333333333  19.5 24.2083333333333  C 16.7239583333333 24.2083333333333  14.3626302083333 23.4097222222222  12.416015625 21.8125  C 10.4694010416667 20.2152777777778  9.49609375 18.2777777777778  9.49609375 16  C 9.49609375 13.7222222222222  10.4694010416667 11.7847222222222  12.416015625 10.1875  C 14.3626302083333 8.59027777777778  16.7239583333333 7.79166666666667  19.5 7.79166666666667  C 22.2760416666667 7.79166666666667  24.6373697916667 8.59027777777778  26.583984375 10.1875  Z M 31.560546875 6.10416666666667  C 32.017578125 6.47916666666667  32.24609375 6.93055555555555  32.24609375 7.45833333333333  C 32.24609375 7.98611111111111  32.017578125 8.4375  31.560546875 8.8125  C 31.103515625 9.1875  30.5533854166667 9.375  29.91015625 9.375  C 29.2669270833333 9.375  28.716796875 9.1875  28.259765625 8.8125  C 27.802734375 8.4375  27.57421875 7.98611111111111  27.57421875 7.45833333333333  C 27.57421875 6.93055555555555  27.802734375 6.47916666666667  28.259765625 6.10416666666667  C 28.716796875 5.72916666666667  29.2669270833333 5.54166666666667  29.91015625 5.54166666666667  C 30.5533854166667 5.54166666666667  31.103515625 5.72916666666667  31.560546875 6.10416666666667  Z M 21.4423828125 2.86458333333333  C 20.2659505208333 2.87152777777778  19.6184895833333 2.875  19.5 2.875  C 19.3815104166667 2.875  18.7340494791667 2.87152777777778  17.5576171875 2.86458333333333  C 16.3811848958333 2.85763888888889  15.48828125 2.85763888888889  14.87890625 2.86458333333333  C 14.26953125 2.87152777777778  13.4527994791667 2.89236111111111  12.4287109375 2.92708333333333  C 11.4046223958333 2.96180555555555  10.5328776041667 3.03125  9.8134765625 3.13541666666667  C 9.09407552083333 3.23958333333333  8.48893229166667 3.36805555555555  7.998046875 3.52083333333333  C 7.15169270833333 3.79861111111111  6.40690104166667 4.20138888888889  5.763671875 4.72916666666667  C 5.12044270833333 5.25694444444444  4.62955729166667 5.86805555555555  4.291015625 6.5625  C 4.10481770833333 6.96527777777778  3.9482421875 7.46180555555555  3.8212890625 8.05208333333333  C 3.6943359375 8.64236111111111  3.60970052083333 9.35763888888889  3.5673828125 10.1979166666667  C 3.52506510416667 11.0381944444444  3.49967447916667 11.7083333333333  3.4912109375 12.2083333333333  C 3.48274739583333 12.7083333333333  3.48274739583333 13.4409722222222  3.4912109375 14.40625  C 3.49967447916667 15.3715277777778  3.50390625 15.9027777777778  3.50390625 16  C 3.50390625 16.0972222222222  3.49967447916667 16.6284722222222  3.4912109375 17.59375  C 3.48274739583333 18.5590277777778  3.48274739583333 19.2916666666667  3.4912109375 19.7916666666667  C 3.49967447916667 20.2916666666667  3.52506510416667 20.9618055555556  3.5673828125 21.8020833333333  C 3.60970052083333 22.6423611111111  3.6943359375 23.3576388888889  3.8212890625 23.9479166666667  C 3.9482421875 24.5381944444444  4.10481770833333 25.0347222222222  4.291015625 25.4375  C 4.62955729166667 26.1319444444444  5.12044270833333 26.7430555555556  5.763671875 27.2708333333333  C 6.40690104166667 27.7986111111111  7.15169270833333 28.2013888888889  7.998046875 28.4791666666667  C 8.48893229166667 28.6319444444444  9.09407552083333 28.7604166666667  9.8134765625 28.8645833333333  C 10.5328776041667 28.96875  11.4046223958333 29.0381944444444  12.4287109375 29.0729166666667  C 13.4527994791667 29.1076388888889  14.26953125 29.1284722222222  14.87890625 29.1354166666667  C 15.48828125 29.1423611111111  16.3811848958333 29.1423611111111  17.5576171875 29.1354166666667  C 18.7340494791667 29.1284722222222  19.3815104166667 29.125  19.5 29.125  C 19.6184895833333 29.125  20.2659505208333 29.1284722222222  21.4423828125 29.1354166666667  C 22.6188151041667 29.1423611111111  23.51171875 29.1423611111111  24.12109375 29.1354166666667  C 24.73046875 29.1284722222222  25.5472005208333 29.1076388888889  26.5712890625 29.0729166666667  C 27.5953776041667 29.0381944444444  28.4671223958333 28.96875  29.1865234375 28.8645833333333  C 29.9059244791667 28.7604166666667  30.5110677083333 28.6319444444444  31.001953125 28.4791666666667  C 31.8483072916667 28.2013888888889  32.5930989583333 27.7986111111111  33.236328125 27.2708333333333  C 33.8795572916667 26.7430555555556  34.3704427083333 26.1319444444444  34.708984375 25.4375  C 34.8951822916667 25.0347222222222  35.0517578125 24.5381944444444  35.1787109375 23.9479166666667  C 35.3056640625 23.3576388888889  35.3902994791667 22.6423611111111  35.4326171875 21.8020833333333  C 35.4749348958333 20.9618055555556  35.5003255208333 20.2916666666667  35.5087890625 19.7916666666667  C 35.5172526041667 19.2916666666667  35.5172526041667 18.5590277777778  35.5087890625 17.59375  C 35.5003255208333 16.6284722222222  35.49609375 16.0972222222222  35.49609375 16  C 35.49609375 15.9027777777778  35.5003255208333 15.3715277777778  35.5087890625 14.40625  C 35.5172526041667 13.4409722222222  35.5172526041667 12.7083333333333  35.5087890625 12.2083333333333  C 35.5003255208333 11.7083333333333  35.4749348958333 11.0381944444444  35.4326171875 10.1979166666667  C 35.3902994791667 9.35763888888889  35.3056640625 8.64236111111111  35.1787109375 8.05208333333333  C 35.0517578125 7.46180555555555  34.8951822916667 6.96527777777778  34.708984375 6.5625  C 34.3704427083333 5.86805555555555  33.8795572916667 5.25694444444444  33.236328125 4.72916666666667  C 32.5930989583333 4.20138888888889  31.8483072916667 3.79861111111111  31.001953125 3.52083333333333  C 30.5110677083333 3.36805555555555  29.9059244791667 3.23958333333333  29.1865234375 3.13541666666667  C 28.4671223958333 3.03125  27.5953776041667 2.96180555555555  26.5712890625 2.92708333333333  C 25.5472005208333 2.89236111111111  24.73046875 2.87152777777778  24.12109375 2.86458333333333  C 23.51171875 2.85763888888889  22.6188151041667 2.85763888888889  21.4423828125 2.86458333333333  Z M 38.873046875 9.39583333333333  C 38.9576822916667 10.6180555555556  39 12.8194444444444  39 16  C 39 19.1805555555556  38.9576822916667 21.3819444444444  38.873046875 22.6041666666667  C 38.7037760416667 25.4930555555556  37.654296875 27.7291666666667  35.724609375 29.3125  C 33.794921875 30.8958333333333  31.0696614583333 31.7569444444444  27.548828125 31.8958333333333  C 26.0592447916667 31.9652777777778  23.3763020833333 32  19.5 32  C 15.6236979166667 32  12.9407552083333 31.9652777777778  11.451171875 31.8958333333333  C 7.93033854166667 31.7569444444444  5.205078125 30.8958333333333  3.275390625 29.3125  C 1.345703125 27.7291666666667  0.296223958333333 25.4930555555556  0.126953125 22.6041666666667  C 0.0423177083333333 21.3819444444444  0 19.1805555555556  0 16  C 0 12.8194444444444  0.0423177083333333 10.6180555555556  0.126953125 9.39583333333333  C 0.296223958333333 6.50694444444444  1.345703125 4.27083333333333  3.275390625 2.6875  C 5.205078125 1.10416666666667  7.93033854166667 0.243055555555554  11.451171875 0.104166666666668  C 12.9407552083333 0.0347222222222179  15.6236979166667 0  19.5 0  C 23.3763020833333 0  26.0592447916667 0.0347222222222179  27.548828125 0.104166666666668  C 31.0696614583333 0.243055555555554  33.794921875 1.10416666666667  35.724609375 2.6875  C 37.654296875 4.27083333333333  38.7037760416667 6.50694444444444  38.873046875 9.39583333333333  Z " fill-rule="nonzero" fill="#000000" stroke="none" transform="matrix(1 0 0 1 886 2959 )" />
  </g>
</svg>