<?xml version="1.0" encoding="utf-8"?>
<svg version="1.1" xmlns:xlink="http://www.w3.org/1999/xlink" width="31px" height="26px" xmlns="http://www.w3.org/2000/svg">
  <g transform="matrix(1 0 0 1 -78 -3255 )">
    <path d="M 1.71549479166667 0  L 29.2845052083333 0  C 29.7554253472222 0  30.1590711805556 0.141059027777777  30.4954427083333 0.423177083333332  C 30.8318142361111 0.705295138888887  31 1.04383680555555  31 1.43880208333333  L 31 24.5611979166667  C 31 24.9561631944444  30.8318142361111 25.2947048611111  30.4954427083333 25.5768229166667  C 30.1590711805556 25.8589409722222  29.7554253472222 26  29.2845052083333 26  L 21 26  L 21 15.9283854166667  L 25.4095052083333 15.9283854166667  L 26.0149739583333 12.0013020833333  L 21.3932291666667 12.0013020833333  L 21.3932291666667 9.49609375  C 21.3932291666667 8.86414930555555  21.5513237847222 8.39019097222222  21.8675130208333 8.07421875  C 22.1837022569444 7.75824652777778  22.7992621527778 7.60026041666667  23.7141927083333 7.60026041666667  L 26.1764322916667 7.58333333333333  L 26.1764322916667 4.07942708333333  C 25.3287760416667 3.97786458333333  24.1312934027778 3.92708333333333  22.583984375 3.92708333333333  C 20.7541232638889 3.92708333333333  19.2909071180556 4.37847222222222  18.1943359375 5.28125  C 17.0977647569444 6.18402777777778  16.5494791666667 7.45920138888889  16.5494791666667 9.10677083333333  L 16.5494791666667 12.0013020833333  L 12.5130208333333 12.0013020833333  L 12.5130208333333 15.9283854166667  L 16 15.9283854166667  L 16 26  L 1.71549479166667 26  C 1.24457465277778 26  0.840928819444445 25.8589409722222  0.504557291666667 25.5768229166667  C 0.168185763888889 25.2947048611111  0 24.9561631944444  0 24.5611979166667  L 0 1.43880208333333  C 0 1.04383680555555  0.168185763888889 0.705295138888887  0.504557291666667 0.423177083333332  C 0.840928819444445 0.141059027777777  1.24457465277778 0  1.71549479166667 0  Z " fill-rule="nonzero" fill="#000000" stroke="none" transform="matrix(1 0 0 1 78 3255 )" />
  </g>
</svg>