<?xml version="1.0" encoding="utf-8"?>
<svg version="1.1" xmlns:xlink="http://www.w3.org/1999/xlink" width="42px" height="32px" xmlns="http://www.w3.org/2000/svg">
  <g transform="matrix(1 0 0 1 -821 -2959 )">
    <path d="M 2.32421875 0  L 39.67578125 0  C 40.3138020833333 0  40.8606770833333 0.173611111111111  41.31640625 0.520833333333332  C 41.7721354166667 0.868055555555554  42 1.28472222222222  42 1.77083333333333  L 42 30.2291666666667  C 42 30.7152777777778  41.7721354166667 31.1319444444444  41.31640625 31.4791666666667  C 40.8606770833333 31.8263888888889  40.3138020833333 32  39.67578125 32  L 29 32  L 29 19.6041666666667  L 34.42578125 19.6041666666667  L 35.24609375 14.7708333333333  L 28.984375 14.7708333333333  L 28.984375 11.6875  C 28.984375 10.9097222222222  29.1985677083333 10.3263888888889  29.626953125 9.9375  C 30.0553385416667 9.54861111111111  30.8893229166667 9.35416666666667  32.12890625 9.35416666666667  L 35.46484375 9.33333333333333  L 35.46484375 5.02083333333333  C 34.31640625 4.89583333333333  32.6940104166667 4.83333333333333  30.59765625 4.83333333333333  C 28.1184895833333 4.83333333333333  26.1360677083333 5.38888888888889  24.650390625 6.5  C 23.1647135416667 7.61111111111111  22.421875 9.18055555555555  22.421875 11.2083333333333  L 22.421875 14.7708333333333  L 16.953125 14.7708333333333  L 16.953125 19.6041666666667  L 22 19.6041666666667  L 22 32  L 2.32421875 32  C 1.68619791666667 32  1.13932291666667 31.8263888888889  0.68359375 31.4791666666667  C 0.227864583333333 31.1319444444444  0 30.7152777777778  0 30.2291666666667  L 0 1.77083333333333  C 0 1.28472222222222  0.227864583333333 0.868055555555554  0.68359375 0.520833333333332  C 1.13932291666667 0.173611111111111  1.68619791666667 0  2.32421875 0  Z " fill-rule="nonzero" fill="#000000" stroke="none" transform="matrix(1 0 0 1 821 2959 )" />
  </g>
</svg>