<?xml version="1.0" encoding="utf-8"?>
<svg version="1.1" xmlns:xlink="http://www.w3.org/1999/xlink" width="33px" height="32px" xmlns="http://www.w3.org/2000/svg">
  <g transform="matrix(1 0 0 1 -945 -2959 )">
    <path d="M 29.1053299492386 5.05  C 30.4035532994924 4.88333333333333  31.7017766497462 4.46666666666666  33 3.8  C 32.0647208121827 5.43333333333333  30.9340101522843 6.825  29.6078680203046 7.975  C 29.6218274111675 8.20833333333333  29.628807106599 8.55833333333333  29.628807106599 9.025  C 29.628807106599 11.1916666666667  29.363578680203 13.3541666666667  28.8331218274112 15.5125  C 28.3026649746193 17.6708333333333  27.4965101522843 19.7416666666667  26.4146573604061 21.725  C 25.3328045685279 23.7083333333333  24.0450507614213 25.4625  22.5513959390863 26.9875  C 21.0577411167513 28.5125  19.2569796954315 29.7291666666667  17.1491116751269 30.6375  C 15.0412436548223 31.5458333333333  12.7868020304569 32  10.3857868020305 32  C 6.60279187817259 32  3.14086294416244 30.7916666666667  0 28.375  C 0.488578680203046 28.4416666666667  1.03299492385787 28.475  1.63324873096447 28.475  C 4.77411167512691 28.475  7.57296954314721 27.325  10.0298223350254 25.025  C 8.56408629441624 24.9916666666667  7.25190355329949 24.4541666666667  6.09327411167513 23.4125  C 4.93464467005076 22.3708333333333  4.13895939086294 21.0416666666667  3.70621827411168 19.425  C 4.16687817258883 19.5083333333333  4.59263959390863 19.55  4.98350253807107 19.55  C 5.58375634517767 19.55  6.17703045685279 19.4583333333333  6.76332487309645 19.275  C 5.1998730964467 18.8916666666667  3.90513959390863 17.9625  2.87912436548223 16.4875  C 1.85310913705584 15.0125  1.34010152284264 13.3  1.34010152284264 11.35  L 1.34010152284264 11.25  C 2.28934010152284 11.8833333333333  3.30837563451777 12.225  4.39720812182741 12.275  C 3.4758883248731 11.5416666666667  2.74302030456853 10.5833333333333  2.19860406091371 9.4  C 1.65418781725888 8.21666666666666  1.38197969543147 6.93333333333333  1.38197969543147 5.55  C 1.38197969543147 4.08333333333333  1.68908629441624 2.725  2.30329949238579 1.475  C 3.99238578680203 3.95833333333333  6.04790609137056 5.94583333333333  8.46986040609137 7.4375  C 10.8918147208122 8.92916666666667  13.4847715736041 9.75833333333333  16.248730964467 9.925  C 16.1370558375635 9.29166666666666  16.0812182741117 8.675  16.0812182741117 8.075  C 16.0812182741117 5.84166666666666  16.7407994923858 3.9375  18.059961928934 2.3625  C 19.3791243654822 0.787500000000001  20.9739847715736 0  22.8445431472081 0  C 24.7988578680203 0  26.4460659898477 0.850000000000001  27.7861675126904 2.55  C 29.3077411167513 2.2  30.738578680203 1.55  32.0786802030457 0.600000000000001  C 31.5621827411168 2.51666666666666  30.5710659898477 4  29.1053299492386 5.05  Z " fill-rule="nonzero" fill="#000000" stroke="none" transform="matrix(1 0 0 1 945 2959 )" />
  </g>
</svg>