<?xml version="1.0" encoding="utf-8"?>
<svg version="1.1" xmlns:xlink="http://www.w3.org/1999/xlink" width="31px" height="26px" xmlns="http://www.w3.org/2000/svg">
  <g transform="matrix(1 0 0 1 -174 -3255 )">
    <path d="M 27.3413705583756 4.103125  C 28.5609137055838 3.96770833333333  29.7804568527919 3.62916666666666  31 3.0875  C 30.1214043993232 4.41458333333333  29.0592216582064 5.5453125  27.8134517766497 6.4796875  C 27.826565143824 6.66927083333333  27.8331218274112 6.95364583333333  27.8331218274112 7.3328125  C 27.8331218274112 9.09322916666666  27.5839678510998 10.8502604166667  27.0856598984772 12.60390625  C 26.5873519458545 14.3575520833333  25.8300549915398 16.0401041666667  24.813769035533 17.6515625  C 23.7974830795262 19.2630208333333  22.5877749576988 20.68828125  21.1846446700508 21.92734375  C 19.7815143824027 23.16640625  18.0898900169205 24.1549479166667  16.1097715736041 24.89296875  C 14.1296531302876 25.6309895833333  12.0118443316413 26  9.75634517766497 26  C 6.20262267343486 26  2.9505076142132 25.0182291666667  0 23.0546875  C 0.458967851099831 23.1088541666667  0.970389170896785 23.1359375  1.53426395939086 23.1359375  C 4.48477157360406 23.1359375  7.11400169204738 22.2015625  9.42195431472081 20.3328125  C 8.04505076142132 20.3057291666667  6.81239424703892 19.8690104166667  5.7239847715736 19.02265625  C 4.63557529610829 18.1763020833333  3.88811336717428 17.0963541666667  3.48159898477157 15.7828125  C 3.91434010152284 15.8505208333333  4.31429780033841 15.884375  4.68147208121827 15.884375  C 5.24534686971235 15.884375  5.80266497461929 15.8098958333333  6.35342639593909 15.6609375  C 4.88472927241963 15.3494791666667  3.66846446700508 14.59453125  2.70463197969543 13.39609375  C 1.74079949238579 12.19765625  1.25888324873096 10.80625  1.25888324873096 9.221875  L 1.25888324873096 9.140625  C 2.15059221658206 9.65520833333333  3.10786802030457 9.9328125  4.13071065989848 9.9734375  C 3.26522842639594 9.37760416666666  2.57677664974619 8.59895833333333  2.06535532994924 7.6375  C 1.55393401015228 6.67604166666666  1.29822335025381 5.63333333333333  1.29822335025381 4.509375  C 1.29822335025381 3.31770833333333  1.58671742808799 2.2140625  2.16370558375635 1.1984375  C 3.75042301184433 3.21614583333333  5.68136632825719 4.83098958333333  7.95653553299492 6.04296875  C 10.2317047377327 7.25494791666667  12.6675126903553 7.92864583333333  15.2639593908629 8.0640625  C 15.1590524534687 7.54947916666666  15.1065989847716 7.0484375  15.1065989847716 6.5609375  C 15.1065989847716 4.74635416666666  15.7262055837563 3.19921875  16.9654187817259 1.91953125  C 18.2046319796954 0.639843750000001  19.702834179357 0  21.4600253807107 0  C 23.29589678511 0  24.8432741116751 0.690625000000001  26.1021573604061 2.071875  C 27.5315143824027 1.7875  28.8756345177665 1.259375  30.1345177664975 0.487500000000001  C 29.6493231810491 2.04479166666666  28.7182741116751 3.25  27.3413705583756 4.103125  Z " fill-rule="nonzero" fill="#000000" stroke="none" transform="matrix(1 0 0 1 174 3255 )" />
  </g>
</svg>