<?xml version="1.0" encoding="utf-8"?>
<svg version="1.1" xmlns:xlink="http://www.w3.org/1999/xlink" width="30px" height="26px" xmlns="http://www.w3.org/2000/svg">
  <g transform="matrix(1 0 0 1 -225 -3255 )">
    <path d="M 12.2675879396985 6.78125  L 15 6.78125  L 15 13.5625  L 12.2675879396985 13.5625  L 12.2675879396985 6.78125  Z M 19.7675879396985 6.78125  L 22.5 6.78125  L 22.5 13.5625  L 19.7675879396985 13.5625  L 19.7675879396985 6.78125  Z M 15 18.65625  L 22.5 18.65625  L 27 14.6875  L 27 2.265625  L 5 2.265625  L 5 18.65625  L 10.9108040201005 18.65625  L 10.9108040201005 22.046875  L 15 18.65625  Z M 2.05402010050251 0  L 30 0  L 30 15.828125  L 21.821608040201 22.609375  L 15.678391959799 22.609375  L 11.5891959798995 26  L 7.5 26  L 7.5 22.609375  L 0 22.609375  L 0 4.515625  L 2.05402010050251 0  Z " fill-rule="nonzero" fill="#000000" stroke="none" transform="matrix(1 0 0 1 225 3255 )" />
  </g>
</svg>