<?xml version="1.0" encoding="utf-8"?>
<svg version="1.1" xmlns:xlink="http://www.w3.org/1999/xlink" width="35px" height="32px" xmlns="http://www.w3.org/2000/svg">
  <g transform="matrix(1 0 0 1 -993 -2959 )">
    <path d="M 14.3121859296482 8.34615384615385  L 17.5 8.34615384615385  L 17.5 16.6923076923077  L 14.3121859296482 16.6923076923077  L 14.3121859296482 8.34615384615385  Z M 23.0621859296482 8.34615384615385  L 26.25 8.34615384615385  L 26.25 16.6923076923077  L 23.0621859296482 16.6923076923077  L 23.0621859296482 8.34615384615385  Z M 17.5 22.9615384615385  L 26.25 22.9615384615385  L 31.8121859296482 18.0769230769231  L 31.8121859296482 3  L 6 3  L 6 22.9615384615385  L 12.7292713567839 22.9615384615385  L 12.7292713567839 27.1346153846154  L 17.5 22.9615384615385  Z M 2.3963567839196 0  L 35 0  L 35 19.4807692307692  L 25.4585427135678 27.8269230769231  L 18.2914572864322 27.8269230769231  L 13.5207286432161 32  L 8.75 32  L 8.75 27.8269230769231  L 0 27.8269230769231  L 0 5.55769230769231  L 2.3963567839196 0  Z " fill-rule="nonzero" fill="#000000" stroke="none" transform="matrix(1 0 0 1 993 2959 )" />
  </g>
</svg>