<?xml version="1.0" encoding="utf-8"?>
<svg version="1.1" xmlns:xlink="http://www.w3.org/1999/xlink" width="32px" height="38px" xmlns="http://www.w3.org/2000/svg">
  <g transform="matrix(1 0 0 1 -73 -73 )">
    <path d="M 31.2457912457912 28.4040404040404  C 31.7485970819304 29.0011223344557  32 29.7261503928171  32 30.5791245791246  C 32 31.4320987654321  31.7485970819304 32.1571268237935  31.2457912457912 32.7542087542088  L 27.5824915824916 37.1043771043771  C 27.0796857463524 37.7014590347924  26.4691358024691 38  25.7508417508418 38  C 25.0325476992144 38  24.4219977553311 37.7014590347924  23.9191919191919 37.1043771043771  L 16 27.7003367003367  L 8.08080808080808 37.1043771043771  C 7.57800224466891 37.7014590347924  6.96745230078563 38  6.24915824915825 38  C 5.53086419753086 38  4.92031425364759 37.7014590347924  4.41750841750842 37.1043771043771  L 0.754208754208754 32.7542087542088  C 0.251402918069585 32.1571268237935  0 31.4320987654321  0 30.5791245791246  C 0 29.7261503928171  0.251402918069585 29.0011223344557  0.754208754208754 28.4040404040404  L 8.67340067340067 19  L 0.754208754208754 9.5959595959596  C 0.251402918069585 8.99887766554433  0 8.27384960718294  0 7.42087542087542  C 0 6.5679012345679  0.251402918069585 5.8428731762065  0.754208754208754 5.24579124579125  L 4.41750841750842 0.895622895622896  C 4.92031425364759 0.298540965207631  5.53086419753086 0  6.24915824915825 0  C 6.96745230078563 0  7.57800224466891 0.298540965207631  8.08080808080808 0.895622895622896  L 16 10.2996632996633  L 23.9191919191919 0.895622895622896  C 24.4219977553311 0.298540965207631  25.0325476992144 0  25.7508417508418 0  C 26.4691358024691 0  27.0796857463524 0.298540965207631  27.5824915824916 0.895622895622896  L 31.2457912457912 5.24579124579125  C 31.7485970819304 5.8428731762065  32 6.5679012345679  32 7.42087542087542  C 32 8.27384960718294  31.7485970819304 8.99887766554433  31.2457912457912 9.5959595959596  L 23.3265993265993 19  L 31.2457912457912 28.4040404040404  Z " fill-rule="nonzero" fill="#000000" stroke="none" transform="matrix(1 0 0 1 73 73 )" />
  </g>
</svg>